<svg xmlns="http://www.w3.org/2000/svg" width="1200" height="560" viewBox="0 0 1200 560">
  <rect width="1200" height="560" fill="#f7f1e8"/>
  <text x="60" y="78" font-family="Microsoft YaHei, PingFang SC, sans-serif" font-size="42" font-weight="700" fill="#1f1f1f">老乡鸡六要素强弱示意</text>
  <text x="60" y="118" font-family="Microsoft YaHei, PingFang SC, sans-serif" font-size="22" fill="#666">它最值得看的是：怎样把“放心、熟悉、可重复进入”做成产品、运营与传播共同成立的关系。</text>
  <g font-family="Microsoft YaHei, PingFang SC, sans-serif" font-size="28" fill="#1f1f1f">
    <text x="60" y="196">产品</text>
    <text x="60" y="256">品牌运营</text>
    <text x="60" y="316">人</text>
    <text x="60" y="376">品牌传播</text>
    <text x="60" y="436">品牌建设</text>
    <text x="60" y="496">渠道</text>
  </g>
  <g>
    <rect x="210" y="168" width="820" height="26" rx="13" fill="#e7ddd1"/>
    <rect x="210" y="168" width="730" height="26" rx="13" fill="#c85b3a"/>
    <rect x="210" y="228" width="820" height="26" rx="13" fill="#e7ddd1"/>
    <rect x="210" y="228" width="700" height="26" rx="13" fill="#c85b3a"/>
    <rect x="210" y="288" width="820" height="26" rx="13" fill="#e7ddd1"/>
    <rect x="210" y="288" width="690" height="26" rx="13" fill="#c85b3a"/>
    <rect x="210" y="348" width="820" height="26" rx="13" fill="#e7ddd1"/>
    <rect x="210" y="348" width="600" height="26" rx="13" fill="#c85b3a"/>
    <rect x="210" y="408" width="820" height="26" rx="13" fill="#e7ddd1"/>
    <rect x="210" y="408" width="570" height="26" rx="13" fill="#c85b3a"/>
    <rect x="210" y="468" width="820" height="26" rx="13" fill="#e7ddd1"/>
    <rect x="210" y="468" width="540" height="26" rx="13" fill="#c85b3a"/>
  </g>
  <g font-family="Microsoft YaHei, PingFang SC, sans-serif" font-size="22" fill="#5b5b5b">
    <text x="1050" y="190">很强</text>
    <text x="1050" y="250">很强</text>
    <text x="1050" y="310">很强</text>
    <text x="1050" y="370">稳定放大</text>
    <text x="1050" y="430">可信底盘</text>
    <text x="1050" y="490">日常进入</text>
  </g>
  <text x="60" y="536" font-family="Microsoft YaHei, PingFang SC, sans-serif" font-size="18" fill="#7b736a">说明：这类日常餐饮品牌最关键的，不是惊艳一次，而是让用户放心地多次进入。</text>
</svg>
